<?xml version="1.0" encoding="UTF-8" standalone="no"?> <svg width="64" height="64" viewBox="0 0 64 64" fill="none" xmlns="http://www.w3.org/2000/svg">
<path d="M51.692 28.057C51.9612 27.7452 52.2893 27.4897 52.6576 27.3052C53.0259 27.1207 53.4271 27.0109 53.838 26.982C54.1274 26.9502 54.4119 26.8831 54.685 26.782C55.1509 26.6131 55.5757 26.3475 55.9318 26.0029C56.2878 25.6582 56.567 25.2421 56.751 24.782C56.8256 24.5933 56.8842 24.3986 56.926 24.2C57.0215 23.7761 57.2023 23.376 57.4574 23.0243C57.7126 22.6725 58.0367 22.3764 58.41 22.154C59.337 21.5758 60.0708 20.7347 60.5179 19.7378C60.9649 18.7409 61.105 17.6335 60.9201 16.5567C60.7353 15.4799 60.2339 14.4826 59.48 13.6919C58.7261 12.9012 57.7538 12.3529 56.687 12.117C56.3164 12.0415 55.9392 12.0026 55.561 12.001L50.841 11.738L47.305 28.008L51.692 28.057Z" fill="#95D5B2"/>
<path d="M54.734 25.279C54.764 25.0781 54.8108 24.8801 54.874 24.687C55.0039 24.2724 55.048 23.8357 55.0037 23.4034C54.9593 22.9712 54.8274 22.5526 54.616 22.173C54.1556 21.3088 53.9346 20.3371 53.9761 19.3588C54.0177 18.3805 54.3201 17.431 54.8521 16.6089C55.384 15.7868 56.1262 15.122 57.0017 14.6833C57.8771 14.2446 58.854 14.048 59.831 14.114C59.0502 13.101 57.9367 12.3962 56.687 12.124C56.3164 12.0485 55.9392 12.0096 55.561 12.008L50.841 11.745L47.305 28.008L51.692 28.057C51.9612 27.7452 52.2893 27.4897 52.6576 27.3052C53.0259 27.1207 53.4271 27.0108 53.838 26.982C54.1274 26.9502 54.4119 26.883 54.685 26.782C54.735 26.764 54.778 26.733 54.826 26.713C54.6953 26.2467 54.664 25.7582 54.734 25.279V25.279Z" fill="#52B788"/>
<path d="M49 22C48.7744 22.0004 48.5554 21.9246 48.3784 21.7848C48.2013 21.6451 48.0768 21.4496 48.0249 21.2301C47.973 21.0106 47.9968 20.78 48.0925 20.5757C48.1882 20.3715 48.3501 20.2056 48.552 20.105L52.552 18.105C53.3125 17.7276 54.15 17.5312 54.999 17.5312C55.848 17.5312 56.6855 17.7276 57.446 18.105C57.5635 18.1637 57.6683 18.245 57.7545 18.3442C57.8406 18.4434 57.9063 18.5586 57.9479 18.6832C57.9895 18.8078 58.0062 18.9394 57.9969 19.0705C57.9877 19.2015 57.9527 19.3295 57.894 19.447C57.8353 19.5645 57.754 19.6694 57.6548 19.7555C57.5556 19.8416 57.4404 19.9073 57.3158 19.9489C57.1912 19.9905 57.0596 20.0072 56.9285 19.9979C56.7975 19.9887 56.6695 19.9537 56.552 19.895C56.0695 19.6548 55.5379 19.5297 54.999 19.5297C54.46 19.5297 53.9284 19.6548 53.446 19.895L49.446 21.895C49.3074 21.964 49.1548 22 49 22Z" fill="#52B788"/>
<path d="M53.984 19.7C53.9673 18.9704 54.0979 18.2449 54.368 17.567C53.7364 17.6392 53.1222 17.8209 52.553 18.104L49.081 19.841L48.629 21.918C48.7462 21.969 48.8722 21.9969 49 22C49.1548 22 49.3075 21.964 49.446 21.895L53.446 19.895C53.6196 19.8152 53.7996 19.7499 53.984 19.7V19.7Z" fill="#40916C"/>
<path d="M49.919 20.763C50.5124 20.5681 51.0585 20.2514 51.5222 19.833C51.986 19.4147 52.3571 18.9039 52.6118 18.3337C52.8665 17.7634 52.9992 17.1462 53.0013 16.5216C53.0034 15.8971 52.8749 15.279 52.624 14.707C53.6406 14.3609 54.5183 13.6956 55.1261 12.8103C55.734 11.9249 56.0396 10.8668 55.9973 9.79373C55.955 8.72061 55.5672 7.68987 54.8916 6.85506C54.216 6.02026 53.2887 5.42606 52.248 5.161C51.1475 4.87278 49.9811 4.97564 48.948 5.452C48.8241 4.78246 48.4762 4.17496 47.9613 3.72936C47.4465 3.28375 46.7954 3.02654 46.115 3C45.6092 3.00032 45.1115 3.12666 44.6668 3.3676C44.2221 3.60854 43.8445 3.95649 43.568 4.38C43.2882 4.73403 43.1039 5.15388 43.0327 5.59944C42.9614 6.04499 43.0056 6.50138 43.161 6.925C42.8171 6.56334 42.3881 6.29366 41.9131 6.14063C41.4381 5.9876 40.9323 5.95609 40.442 6.049C39.8553 6.16204 39.3154 6.44679 38.8908 6.86714C38.4662 7.28748 38.176 7.82448 38.057 8.41L38.049 8.457C37.8198 9.93649 37.3056 11.3574 36.535 12.641C36.422 12.822 36.246 13.215 36.246 13.215L34.577 16.7L44.477 22.357L49.919 20.763Z" fill="#95D5B2"/>
<path d="M46.169 13.894C45.8081 13.2297 45.6199 12.4853 45.6216 11.7292C45.6234 10.9732 45.815 10.2297 46.179 9.567L46.195 9.539C47.0511 8.07987 47.5866 6.45518 47.766 4.773C47.801 4.42572 47.8727 4.08313 47.98 3.751C47.4642 3.29197 46.8049 3.02648 46.115 3C45.6092 3.00032 45.1115 3.12666 44.6668 3.3676C44.2221 3.60854 43.8445 3.95649 43.568 4.38C43.2883 4.73388 43.1041 5.15355 43.0328 5.59894C42.9616 6.04432 43.0057 6.50053 43.161 6.924C42.7815 6.53021 42.3016 6.24765 41.7731 6.10687C41.2447 5.96608 40.6878 5.97243 40.1627 6.12523C39.6376 6.27803 39.1642 6.57146 38.7938 6.9738C38.4234 7.37614 38.17 7.87208 38.061 8.408L38.053 8.455C37.8238 9.93449 37.3096 11.3554 36.539 12.639C36.426 12.82 36.25 13.213 36.25 13.213L34.577 16.7L44.477 22.357L49.919 20.768C50.7765 20.4776 51.5284 19.9387 52.079 19.22C49.6135 18.0866 47.5519 16.2288 46.169 13.894V13.894Z" fill="#52B788"/>
<path d="M51 9.99999C49.7037 10.0033 48.4352 10.3758 47.343 11.074C47.3351 10.2613 47.2001 9.45492 46.943 8.68399C46.9015 8.55923 46.8358 8.44387 46.7497 8.34449C46.6637 8.24511 46.5588 8.16366 46.4413 8.10479C46.3237 8.04592 46.1957 8.01078 46.0646 8.00137C45.9334 7.99197 45.8017 8.00849 45.677 8.04999C45.5522 8.09148 45.4369 8.15715 45.3375 8.24323C45.2381 8.32931 45.1567 8.43412 45.0978 8.55168C45.0389 8.66924 45.0038 8.79724 44.9944 8.92838C44.985 9.05952 45.0015 9.19123 45.043 9.31599C45.3012 10.0928 45.3939 10.9151 45.3152 11.7299C45.2365 12.5447 44.9881 13.334 44.586 14.047L42.178 17.419C42.0956 17.5254 42.0356 17.6473 42.0014 17.7774C41.9673 17.9076 41.9598 18.0433 41.9793 18.1764C41.9988 18.3095 42.045 18.4373 42.1151 18.5522C42.1852 18.667 42.2778 18.7665 42.3873 18.8448C42.4967 18.923 42.6209 18.9783 42.7522 19.0075C42.8836 19.0366 43.0195 19.0389 43.1517 19.0143C43.284 18.9897 43.41 18.9386 43.522 18.8641C43.6341 18.7897 43.73 18.6934 43.804 18.581L47.06 14.023C47.5084 13.3966 48.0998 12.8863 48.7851 12.5345C49.4703 12.1826 50.2297 11.9994 51 12C51.2652 12 51.5196 11.8946 51.7071 11.7071C51.8946 11.5196 52 11.2652 52 11C52 10.7348 51.8946 10.4804 51.7071 10.2929C51.5196 10.1053 51.2652 9.99999 51 9.99999Z" fill="#52B788"/>
<path d="M46.169 13.894C45.8081 13.2297 45.6199 12.4853 45.6216 11.7292C45.6233 10.9732 45.815 10.2297 46.179 9.567L46.195 9.539C46.409 9.16433 46.6043 8.78133 46.781 8.39C46.6559 8.22577 46.4827 8.10478 46.2854 8.04399C46.0881 7.98319 45.8768 7.98565 45.681 8.051C45.4294 8.13496 45.2216 8.3154 45.103 8.55262C44.9845 8.78985 44.9651 9.06444 45.049 9.316C45.3072 10.0928 45.3999 10.9151 45.3212 11.7299C45.2425 12.5447 44.9941 13.334 44.592 14.047L42.184 17.419C42.1016 17.5254 42.0416 17.6473 42.0074 17.7775C41.9733 17.9076 41.9658 18.0433 41.9853 18.1764C42.0048 18.3095 42.051 18.4374 42.1211 18.5522C42.1912 18.667 42.2838 18.7666 42.3933 18.8448C42.5027 18.923 42.6269 18.9784 42.7582 19.0075C42.8896 19.0366 43.0255 19.0389 43.1578 19.0143C43.29 18.9897 43.416 18.9386 43.528 18.8641C43.6401 18.7897 43.736 18.6934 43.81 18.581L46.637 14.624C46.477 14.385 46.317 14.144 46.169 13.894Z" fill="#40916C"/>
<path d="M12.6573 32.9579L31.0421 51.3427L22.5568 59.8279C21.8066 60.5781 20.7892 60.9995 19.7284 60.9995C18.6675 60.9995 17.6501 60.5781 16.8999 59.8279L4.17201 47.1C3.42186 46.3499 3.00043 45.3325 3.00043 44.2716C3.00043 43.2107 3.42186 42.1933 4.17201 41.4432L12.6573 32.9579Z" fill="#DA9367"/>
<path d="M20.834 54.421L19.6 54.6C18.8128 54.7162 18.0118 54.5149 17.373 54.0404C16.7343 53.566 16.3102 52.8572 16.194 52.07C16.0778 51.2829 16.2791 50.4818 16.7536 49.843C17.2281 49.2043 17.9368 48.7802 18.724 48.664L18.855 48.645L24.676 47.804L26.09 53.461L20.832 54.418" fill="#EF5350"/>
<path d="M24.678 47.807L19.473 48.559C19.4928 50.0966 19.6694 51.6282 20 53.13L19.6 53.189C18.8571 53.2965 18.1009 53.1208 17.4815 52.6968C16.862 52.2728 16.4246 51.6315 16.256 50.9C16.1357 51.3782 16.1352 51.8787 16.2545 52.3572C16.3737 52.8357 16.6091 53.2774 16.9397 53.6432C17.2704 54.009 17.6861 54.2877 18.1501 54.4546C18.6141 54.6215 19.1121 54.6714 19.6 54.6L20.832 54.418L26.09 53.461L24.678 47.807Z" fill="#E53935"/>
<path d="M45.184 22.816C47.3931 22.816 49.184 21.0251 49.184 18.816C49.184 16.6069 47.3931 14.816 45.184 14.816C42.9749 14.816 41.184 16.6069 41.184 18.816C41.184 21.0251 42.9749 22.816 45.184 22.816Z" fill="#E53935"/>
<path d="M49.112 18.066C48.5663 18.4504 47.9329 18.6918 47.2698 18.7681C46.6067 18.8443 45.9351 18.753 45.3164 18.5024C44.6977 18.2519 44.1518 17.8502 43.7286 17.334C43.3054 16.8179 43.0184 16.2038 42.894 15.548C42.7016 15.6784 42.5212 15.8256 42.355 15.988C41.8672 16.4757 41.5138 17.0813 41.3291 17.7459C41.1444 18.4105 41.1348 19.1116 41.301 19.781C41.4673 20.4505 41.8039 21.0656 42.2781 21.5665C42.7523 22.0675 43.348 22.4373 44.0073 22.6401C44.6666 22.8428 45.3672 22.8716 46.0409 22.7237C46.7147 22.5758 47.3387 22.2561 47.8524 21.7958C48.3662 21.3355 48.7521 20.7501 48.9728 20.0966C49.1935 19.443 49.2415 18.7435 49.112 18.066V18.066Z" fill="#C62828"/>
<path d="M38.113 21.402C40.3221 21.402 42.113 19.6111 42.113 17.402C42.113 15.1929 40.3221 13.402 38.113 13.402C35.9038 13.402 34.113 15.1929 34.113 17.402C34.113 19.6111 35.9038 21.402 38.113 21.402Z" fill="#EF5350"/>
<path d="M39.527 18.816C38.8442 18.1309 38.4337 17.2209 38.3721 16.2555C38.3104 15.2902 38.6018 14.3354 39.192 13.569C38.5151 13.379 37.8 13.3711 37.1191 13.5461C36.4382 13.7212 35.8156 14.073 35.3142 14.5659C34.8129 15.0588 34.4506 15.6754 34.2641 16.3532C34.0776 17.0311 34.0734 17.7462 34.2519 18.4262C34.4305 19.1062 34.7854 19.727 35.2809 20.2258C35.7764 20.7246 36.3949 21.0837 37.0737 21.2667C37.7525 21.4498 38.4676 21.4503 39.1467 21.2683C39.8258 21.0862 40.4448 20.728 40.941 20.23C41.0618 20.1014 41.1737 19.9647 41.276 19.821C40.6159 19.6428 40.0133 19.2966 39.527 18.816V18.816Z" fill="#E53935"/>
<path d="M49.728 27.412C49.7877 27.242 49.8318 27.0669 49.86 26.889L50.419 23.1C50.5499 22.3217 50.3805 21.5227 49.9451 20.8645C49.5096 20.2063 48.8405 19.7379 48.073 19.554C47.6737 19.4728 47.2621 19.4739 46.8633 19.557C46.4644 19.6402 46.0867 19.8037 45.7531 20.0377C45.4195 20.2716 45.1371 20.571 44.923 20.9177C44.7089 21.2643 44.5677 21.651 44.508 22.054L44.401 22.781L43.77 30.13L45.407 30.539C45.9 30.6622 46.414 30.6762 46.9129 30.5799C47.4119 30.4835 47.8837 30.2792 48.2954 29.9813C48.7071 29.6834 49.0486 29.2991 49.2961 28.8552C49.5435 28.4114 49.691 27.9188 49.728 27.412V27.412Z" fill="#FF7373"/>
<path d="M49.765 27.264C49.2482 26.9974 48.776 26.6523 48.365 26.241C46.607 24.483 46.291 21.951 47.658 20.584C47.9985 20.2463 48.4188 20.0004 48.88 19.869C48.6288 19.7223 48.3562 19.616 48.072 19.554C47.6727 19.4728 47.2611 19.4739 46.8623 19.557C46.4634 19.6402 46.0857 19.8037 45.7521 20.0377C45.4185 20.2716 45.1361 20.571 44.922 20.9177C44.7079 21.2643 44.5667 21.651 44.507 22.054L44.4 22.781L43.77 30.13L45.407 30.539C45.9 30.6622 46.414 30.6762 46.9129 30.5799C47.4119 30.4835 47.8837 30.2792 48.2954 29.9813C48.7071 29.6834 49.0486 29.2991 49.2961 28.8552C49.5435 28.4114 49.691 27.9188 49.728 27.412C49.744 27.364 49.751 27.312 49.765 27.264Z" fill="#EF5350"/>
<path d="M39.88 29.826C42.6414 29.826 44.88 27.5874 44.88 24.826C44.88 22.0646 42.6414 19.826 39.88 19.826C37.1186 19.826 34.88 22.0646 34.88 24.826C34.88 27.5874 37.1186 29.826 39.88 29.826Z" fill="#FF7373"/>
<path d="M40.73 25.629C40.0453 24.8455 39.623 23.8673 39.5222 22.8317C39.4214 21.7961 39.6472 20.7548 40.168 19.854C39.2176 19.7953 38.2702 20.0091 37.4372 20.4704C36.6042 20.9318 35.9202 21.6213 35.4658 22.4581C35.0113 23.2948 34.8052 24.244 34.8717 25.1938C34.9383 26.1437 35.2747 27.0548 35.8413 27.8201C36.408 28.5853 37.1814 29.1728 38.0706 29.5135C38.9598 29.8542 39.9277 29.9339 40.8606 29.7432C41.7936 29.5526 42.6527 29.0995 43.3369 28.4373C44.0211 27.775 44.502 26.9312 44.723 26.005C43.4057 25.7618 42.0695 25.636 40.73 25.629V25.629Z" fill="#EF5350"/>
<path d="M14.071 48.272C16.2801 48.272 18.071 46.4811 18.071 44.272C18.071 42.0628 16.2801 40.272 14.071 40.272C11.8618 40.272 10.071 42.0628 10.071 44.272C10.071 46.4811 11.8618 48.272 14.071 48.272Z" fill="#EF5350"/>
<path d="M16.9 41.443C16.3406 40.8836 15.6278 40.5027 14.8519 40.3483C14.076 40.194 13.2717 40.2732 12.5408 40.576C11.81 40.8787 11.1852 41.3914 10.7457 42.0492C10.3062 42.707 10.0716 43.4804 10.0716 44.2715C10.0716 45.0626 10.3062 45.836 10.7457 46.4937C11.1852 47.1515 11.81 47.6642 12.5408 47.967C13.2717 48.2697 14.076 48.349 14.8519 48.1946C15.6278 48.0403 16.3406 47.6594 16.9 47.1C17.2714 46.7285 17.5661 46.2876 17.7671 45.8023C17.9682 45.317 18.0716 44.7968 18.0716 44.2715C18.0716 43.7462 17.9682 43.226 17.7671 42.7407C17.5661 42.2554 17.2714 41.8144 16.9 41.443ZM12.657 45.686C12.2851 45.3141 11.9904 44.8723 11.79 44.386C13.1661 44.5414 14.5536 44.5702 15.935 44.472C15.6913 45.2334 15.6826 46.0506 15.91 46.817C15.3176 46.8848 14.7176 46.8183 14.1545 46.6225C13.5913 46.4267 13.0795 46.1066 12.657 45.686V45.686Z" fill="#E53935"/>
<path d="M20.435 48.979C22.6441 48.979 24.435 47.1881 24.435 44.979C24.435 42.7699 22.6441 40.979 20.435 40.979C18.2259 40.979 16.435 42.7699 16.435 44.979C16.435 47.1881 18.2259 48.979 20.435 48.979Z" fill="#FF7373"/>
<path d="M23.263 42.151C22.7036 41.5915 21.9909 41.2104 21.2149 41.056C20.439 40.9015 19.6347 40.9807 18.9037 41.2834C18.1727 41.5861 17.5479 42.0988 17.1083 42.7566C16.6688 43.4144 16.4341 44.1878 16.4341 44.979C16.4341 45.7702 16.6688 46.5436 17.1083 47.2014C17.5479 47.8592 18.1727 48.3719 18.9037 48.6746C19.6347 48.9774 20.439 49.0565 21.2149 48.9021C21.9909 48.7476 22.7036 48.3665 23.263 47.807C24.0129 47.0569 24.4341 46.0397 24.4341 44.979C24.4341 43.9183 24.0129 42.9011 23.263 42.151V42.151ZM18.914 44.058C19.368 43.964 19.8187 43.856 20.266 43.734C19.8635 45.2114 19.6118 46.7258 19.515 48.254C19.0299 47.6822 18.7161 46.9849 18.6098 46.2426C18.5035 45.5003 18.6089 44.743 18.914 44.058V44.058Z" fill="#EF5350"/>
<path d="M22.556 59.828L21.327 56.139C19.9966 52.148 19.8039 47.8654 20.7706 43.771C21.7373 39.6767 23.8251 35.9325 26.8 32.958V32.958C29.7746 29.9836 33.5187 27.8962 37.6128 26.9298C41.7069 25.9633 45.9892 26.1559 49.98 27.486L53.669 28.716L22.556 59.828Z" fill="#F9DBAF"/>
<path d="M31.042 40.029C34.5644 36.502 36.8237 31.9107 37.469 26.968C34.4235 27.7067 31.5645 29.0695 29.073 30.9701C26.5814 32.8708 24.5114 35.2679 22.9941 38.0099C21.4769 40.7519 20.5453 43.7789 20.2583 46.8995C19.9713 50.0201 20.3352 53.1663 21.327 56.139L22.556 59.828L30.335 52.05C28.1057 49.8247 26.3826 47.1448 25.283 44.193C27.4104 43.1177 29.3542 41.7123 31.042 40.029V40.029Z" fill="#EDB88E"/>
<path d="M4.172 41.443L7.861 42.673C11.852 44.0032 16.1346 44.1957 20.2289 43.229C24.3231 42.2624 28.0674 40.1747 31.042 37.2V37.2C34.0164 34.2253 36.1037 30.4812 37.0702 26.3872C38.0367 22.2931 37.8441 18.0108 36.514 14.02L35.284 10.331L4.172 41.443Z" fill="#F9DBAF"/>
<path d="M28 31C28.5523 31 29 30.5523 29 30C29 29.4477 28.5523 29 28 29C27.4477 29 27 29.4477 27 30C27 30.5523 27.4477 31 28 31Z" fill="#EDB88E"/>
<path d="M32.5 26.5C33.0523 26.5 33.5 26.0523 33.5 25.5C33.5 24.9477 33.0523 24.5 32.5 24.5C31.9477 24.5 31.5 24.9477 31.5 25.5C31.5 26.0523 31.9477 26.5 32.5 26.5Z" fill="#EDB88E"/>
<path d="M24 47C24.5523 47 25 46.5523 25 46C25 45.4477 24.5523 45 24 45C23.4477 45 23 45.4477 23 46C23 46.5523 23.4477 47 24 47Z" fill="#DA9367"/>
<path d="M25 53C25.5523 53 26 52.5523 26 52C26 51.4477 25.5523 51 25 51C24.4477 51 24 51.4477 24 52C24 52.5523 24.4477 53 25 53Z" fill="#DA9367"/>
<path d="M31.269 44.731C31.8213 44.731 32.269 44.2833 32.269 43.731C32.269 43.1787 31.8213 42.731 31.269 42.731C30.7167 42.731 30.269 43.1787 30.269 43.731C30.269 44.2833 30.7167 44.731 31.269 44.731Z" fill="#EDB88E"/>
<path d="M22 39C22.5523 39 23 38.5523 23 38C23 37.4477 22.5523 37 22 37C21.4477 37 21 37.4477 21 38C21 38.5523 21.4477 39 22 39Z" fill="#EDB88E"/>
<path d="M23 31C23.5523 31 24 30.5523 24 30C24 29.4477 23.5523 29 23 29C22.4477 29 22 29.4477 22 30C22 30.5523 22.4477 31 23 31Z" fill="#EDB88E"/>
<path d="M33 20C33.5523 20 34 19.5523 34 19C34 18.4477 33.5523 18 33 18C32.4477 18 32 18.4477 32 19C32 19.5523 32.4477 20 33 20Z" fill="#EDB88E"/>
<path d="M43 32C43.5523 32 44 31.5523 44 31C44 30.4477 43.5523 30 43 30C42.4477 30 42 30.4477 42 31C42 31.5523 42.4477 32 43 32Z" fill="#EDB88E"/>
<path d="M39 39C39.5523 39 40 38.5523 40 38C40 37.4477 39.5523 37 39 37C38.4477 37 38 37.4477 38 38C38 38.5523 38.4477 39 39 39Z" fill="#EDB88E"/>
<path d="M14 39C14.5523 39 15 38.5523 15 38C15 37.4477 14.5523 37 14 37C13.4477 37 13 37.4477 13 38C13 38.5523 13.4477 39 14 39Z" fill="#EDB88E"/>
<path d="M30.335 20.937L36.682 14.59C36.624 14.4 36.577 14.209 36.514 14.02L35.284 10.331L4.172 41.443L7.861 42.673C13.331 44.4962 19.2905 44.1639 24.524 41.744C23.6197 38.0689 23.6795 34.2227 24.6976 30.5775C25.7156 26.9323 27.6574 23.6117 30.335 20.937V20.937Z" fill="#EDB88E"/>
</svg>
