<?xml version="1.0" encoding="utf-8"?>
<!-- Generator: Adobe Illustrator 24.0.2, SVG Export Plug-In . SVG Version: 6.00 Build 0)  -->
<svg version="1.1" id="Layer_1" xmlns="http://www.w3.org/2000/svg" xmlns:xlink="http://www.w3.org/1999/xlink" x="0px" y="0px"
	 viewBox="0 0 512 512" style="enable-background:new 0 0 512 512;" xml:space="preserve">
<style type="text/css">
	.st0{fill:#FF836C;}
</style>
<path class="st0" d="M390.4415,125.69V46.7313h-65.2771c-9.3274-14.8242-25.7201-24.1172-43.2856-24.1172
	c-9.1935,0-18.1212,2.4872-25.9283,7.1289c-9.6245-10.6267-23.3925-16.9324-37.8543-16.9324
	c-21.623,0-40.7554,13.8711-48.0916,33.9207h-49.16V151.387h0.3854v10.9705c0,38.9327,6.1925,77.6178,18.3455,114.6051
	l27.1903,82.7533c5.7386,17.4649,8.6626,35.7316,8.6626,54.1152v84.7784h48.3073c0,0,64.4995-0.8836,64.4995,0h48.3076v-84.7784
	c0-18.3836,2.924-36.6503,8.6626-54.1152l27.1901-82.7533c12.153-36.9874,18.3458-75.6724,18.3458-114.6051v-36.6656
	C390.7405,125.6913,390.6318,125.6905,390.4415,125.69z M184.9031,65.6757l1.5312-7.6018
	c3.071-15.2501,16.3871-26.3188,31.6618-26.3188c11.438,0,21.7996,5.9837,27.7161,16.0062l5.9257,10.0384l8.6137-7.8547
	c5.9308-5.408,13.5758-8.3864,21.5271-8.3864c12.3307,0,23.7653,7.3372,29.1322,18.6923l2.5635,5.4249h57.9227v60.0052
	c-49.8391-0.0094-182.6454,0.0035-231.708,0.0089V65.6757H184.9031z M225.2887,324.2082c-13.9825,0-25.3177-11.3353-25.3177-25.318
	s11.3353-25.318,25.3177-25.318c13.9827,0,25.318,11.3353,25.318,25.318S239.2714,324.2082,225.2887,324.2082z M251.0938,189.9566
	c-4.8897,0-8.8536-3.9642-8.8536-8.8539c0-4.89,3.964-8.8539,8.8536-8.8539c4.89,0,8.8539,3.964,8.8539,8.8539
	C259.9477,185.9923,255.9837,189.9566,251.0938,189.9566z M318.1262,237.4026c-10.5486,0-19.0997-8.5512-19.0997-19.0997
	s8.5511-19.0997,19.0997-19.0997c10.5483,0,19.1,8.5511,19.1,19.0997S328.6745,237.4026,318.1262,237.4026z"/>
</svg>
