<?xml version="1.0" encoding="UTF-8" standalone="no"?> <svg width="64" height="64" viewBox="0 0 64 64" fill="none" xmlns="http://www.w3.org/2000/svg">
<path d="M50 53C50 56.314 41.941 61 32 61C22.059 61 14 56.314 14 53C14 49.686 22.059 49 32 49C41.941 49 50 49.686 50 53Z" fill="#ADE8F4"/>
<path d="M33 59C23.3 59 15.406 54.538 15.035 51.242C14.7317 51.4279 14.4787 51.6854 14.2983 51.9919C14.1178 52.2985 14.0154 52.6446 14 53C14 56.314 22.059 61 32 61C41.727 61 49.632 56.516 49.968 53.219C47.505 56.079 40.849 59 33 59Z" fill="#48CAE4"/>
<path d="M49 52.371C43.8473 55.4018 37.978 57 32 57C26.022 57 20.1527 55.4018 15 52.371V52.371L11 31.371H53L49 52.371Z" fill="#ADE8F4"/>
<path d="M34 49.629C30.3788 49.5966 26.8374 48.5607 23.7696 46.6365C20.7017 44.7122 18.2276 41.975 16.622 38.729C21.5971 40.288 26.7866 41.0544 32 41C40.032 41 47.2 39.352 51.972 36.768L53 31.371H11L15 52.371C20.1527 55.4018 26.022 57 32 57C37.978 57 43.8473 55.4018 49 52.371L50.335 45.361C45.3438 48.1552 39.7201 49.6246 34 49.629V49.629Z" fill="#48CAE4"/>
<path d="M47.7 10.165C46.715 7.191 43.422 4.99999 39.5 4.99999C38.8757 5.00099 38.2527 5.05924 37.639 5.17399C35.3562 3.72641 32.7029 2.9713 30 3C24.763 3 20.322 5.66 18.684 9.363C11.449 11.045 6 18.417 6 27.261C6 33.744 17.641 39 32 39C46.359 39 58 33.744 58 27.261C58 19.42 53.709 12.753 47.7 10.165Z" fill="#FCF2AD"/>
<path d="M24.031 20.216C24.3253 20.069 24.6532 20.0024 24.9816 20.0228C25.3099 20.0431 25.6271 20.1498 25.901 20.332L26.901 21.002C27.221 21.2156 27.4673 21.5229 27.606 21.8818C27.7447 22.2407 27.7692 22.6337 27.676 23.007L27.448 23.922C27.3278 24.402 27.0219 24.8146 26.5975 25.0691C26.1731 25.3236 25.665 25.3991 25.185 25.279L24.408 25.085C24.0054 24.9829 23.6484 24.7495 23.3934 24.4216C23.1384 24.0938 22.9999 23.6903 23 23.275V21.885C23 21.5385 23.0964 21.1989 23.2785 20.9041C23.4606 20.6093 23.7211 20.371 24.031 20.216V20.216Z" fill="#EDB88E"/>
<path d="M39.318 9.45501L38.018 10.323C37.8948 10.4051 37.7913 10.5135 37.7151 10.6405C37.6389 10.7674 37.5918 10.9097 37.5773 11.057C37.5627 11.2044 37.5811 11.3531 37.631 11.4925C37.681 11.6319 37.7612 11.7584 37.866 11.863L39.42 13.42C39.5835 13.5835 39.7986 13.6854 40.0287 13.7081C40.2588 13.7309 40.4896 13.6733 40.682 13.545L41.982 12.677C42.1052 12.5949 42.2087 12.4865 42.2849 12.3596C42.3611 12.2326 42.4082 12.0903 42.4227 11.943C42.4373 11.7957 42.4189 11.6469 42.369 11.5075C42.3191 11.3682 42.2388 11.2416 42.134 11.137L40.58 9.58001C40.4165 9.41649 40.2015 9.31466 39.9714 9.29187C39.7413 9.26908 39.5104 9.32673 39.318 9.45501V9.45501Z" fill="#EDB88E"/>
<path d="M38.554 22.723L37.366 23.317C36.9733 23.5134 36.6562 23.8336 36.4636 24.2281C36.2709 24.6226 36.2134 25.0696 36.3 25.5L36.678 27.394C36.7691 27.8472 37.0143 28.2548 37.372 28.5476C37.7297 28.8404 38.1778 29.0003 38.64 29H40.394C40.7891 29.0001 41.1753 28.8832 41.504 28.664L42.185 28.21C42.4156 28.0562 42.6117 27.8561 42.7608 27.6225C42.91 27.3889 43.009 27.1268 43.0515 26.8529C43.094 26.579 43.0791 26.2992 43.0077 26.0314C42.9364 25.7636 42.8101 25.5135 42.637 25.297L41.01 23.263C40.7242 22.9056 40.3244 22.657 39.8775 22.5587C39.4305 22.4605 38.9634 22.5184 38.554 22.723Z" fill="#EDB88E"/>
<path d="M14.106 20.789L13.486 22.028C13.4241 22.1517 13.3885 22.287 13.3816 22.4251C13.3746 22.5633 13.3964 22.7014 13.4456 22.8308C13.4947 22.9601 13.5702 23.0778 13.6672 23.1765C13.7641 23.2752 13.8806 23.3526 14.009 23.404L15.558 24.023C15.7463 24.0984 15.9532 24.1148 16.151 24.0699C16.3489 24.025 16.5284 23.9211 16.6657 23.7718C16.8031 23.6225 16.8918 23.4349 16.9201 23.234C16.9483 23.0331 16.9148 22.8284 16.824 22.647L15.894 20.789C15.8109 20.6231 15.6832 20.4836 15.5253 20.3862C15.3675 20.2887 15.1856 20.2371 15 20.2371C14.8145 20.2371 14.6326 20.2887 14.4747 20.3862C14.3168 20.4836 14.1892 20.6231 14.106 20.789Z" fill="#EDB88E"/>
<path d="M50.012 22.44L48.823 23.151C48.7042 23.2219 48.6015 23.3168 48.5212 23.4294C48.441 23.5421 48.385 23.6702 48.3568 23.8057C48.3286 23.9411 48.3288 24.0809 48.3574 24.2163C48.386 24.3516 48.4424 24.4796 48.523 24.592L49.495 25.948C49.6131 26.1131 49.7787 26.2384 49.9697 26.3071C50.1607 26.3758 50.3681 26.3848 50.5644 26.3328C50.7606 26.2808 50.9364 26.1703 51.0683 26.016C51.2003 25.8617 51.2821 25.6709 51.303 25.469L51.52 23.4C51.5389 23.2155 51.506 23.0294 51.4252 22.8624C51.3443 22.6955 51.2187 22.5543 51.0622 22.4547C50.9057 22.3551 50.7246 22.301 50.5392 22.2984C50.3537 22.2958 50.1712 22.3448 50.012 22.44Z" fill="#EDB88E"/>
<path d="M28.6 9.00001L27.411 9.71101C27.2922 9.78195 27.1895 9.87677 27.1092 9.98945C27.029 10.1021 26.973 10.2302 26.9448 10.3657C26.9166 10.5011 26.9168 10.6409 26.9454 10.7763C26.974 10.9116 27.0304 11.0396 27.111 11.152L28.084 12.508C28.2022 12.6728 28.3678 12.7977 28.5586 12.8662C28.7495 12.9347 28.9567 12.9435 29.1527 12.8916C29.3487 12.8396 29.5243 12.7293 29.6561 12.5752C29.788 12.4212 29.8699 12.2307 29.891 12.029L30.1 9.96301C30.1184 9.77942 30.0857 9.5943 30.0054 9.42816C29.9252 9.26201 29.8005 9.12131 29.6453 9.02162C29.49 8.92194 29.3102 8.86716 29.1257 8.86334C28.9412 8.85953 28.7593 8.90683 28.6 9.00001V9.00001Z" fill="#EDB88E"/>
<path d="M27.36 24.19C27.1899 24.6023 26.8769 24.9395 26.4783 25.1397C26.0797 25.3399 25.6223 25.3897 25.19 25.28L24.41 25.09C24.006 24.9868 23.648 24.7517 23.3926 24.4221C23.1372 24.0924 22.999 23.687 23 23.27V21.88C23.0004 21.5349 23.097 21.1967 23.2789 20.9035C23.4609 20.6103 23.721 20.3736 24.03 20.22C24.0681 20.1991 24.1083 20.1824 24.15 20.17C24.0497 20.3932 23.9985 20.6353 24 20.88V22.27C23.999 22.687 24.1372 23.0924 24.3926 23.4221C24.648 23.7517 25.006 23.9868 25.41 24.09L26.19 24.28C26.5795 24.377 26.9899 24.3455 27.36 24.19Z" fill="#DA9367"/>
<path d="M42.4 12.07C42.3479 12.319 42.2009 12.5378 41.99 12.68L40.68 13.55C40.4873 13.6771 40.2565 13.7336 40.0268 13.7099C39.7971 13.6862 39.5827 13.5838 39.42 13.42L37.86 11.86C37.7564 11.7549 37.6772 11.6283 37.628 11.4892C37.5787 11.35 37.5606 11.2018 37.5749 11.0549C37.5892 10.908 37.6356 10.7661 37.7108 10.6391C37.7859 10.5121 37.8881 10.4032 38.01 10.32L38.6 9.93001C38.5594 10.0943 38.5619 10.2663 38.6075 10.4293C38.6531 10.5922 38.7401 10.7406 38.86 10.86L40.42 12.42C40.5827 12.5838 40.7971 12.6862 41.0268 12.7099C41.2565 12.7336 41.4873 12.6771 41.68 12.55L42.4 12.07Z" fill="#DA9367"/>
<path d="M43.06 26.29C43.1071 26.6603 43.0496 27.0363 42.8941 27.3756C42.7386 27.7149 42.4912 28.004 42.18 28.21L41.5 28.66C41.1727 28.8825 40.7858 29.001 40.39 29H38.64C38.1775 28.9996 37.7295 28.839 37.3721 28.5454C37.0147 28.2519 36.7702 27.8436 36.68 27.39L36.3 25.5C36.2165 25.0869 36.2664 24.658 36.4425 24.2751C36.6187 23.8923 36.9119 23.5753 37.28 23.37C37.2817 23.4139 37.2884 23.4576 37.3 23.5L37.68 25.39C37.7702 25.8436 38.0147 26.2519 38.3721 26.5454C38.7295 26.839 39.1775 26.9996 39.64 27H41.39C41.7858 27.001 42.1727 26.8825 42.5 26.66L43.06 26.29Z" fill="#DA9367"/>
<path d="M16.93 23.09C16.9301 23.2534 16.8903 23.4143 16.8138 23.5587C16.7374 23.7031 16.6268 23.8266 16.4916 23.9183C16.3565 24.0101 16.2009 24.0673 16.0384 24.0851C15.876 24.1028 15.7118 24.0804 15.56 24.02L14.01 23.4C13.8814 23.3497 13.7648 23.2731 13.6676 23.175C13.5705 23.0769 13.4949 22.9595 13.446 22.8304C13.397 22.7013 13.3756 22.5634 13.3831 22.4255C13.3907 22.2877 13.4271 22.1529 13.49 22.03L14.11 20.79C14.1793 20.6401 14.287 20.5111 14.4222 20.4163C14.5575 20.3214 14.7154 20.2641 14.88 20.25L14.49 21.03C14.4271 21.1529 14.3907 21.2877 14.3831 21.4255C14.3756 21.5634 14.397 21.7013 14.446 21.8304C14.4949 21.9595 14.5705 22.0769 14.6676 22.175C14.7648 22.2731 14.8814 22.3497 15.01 22.4L16.56 23.02C16.6776 23.0673 16.8033 23.091 16.93 23.09V23.09Z" fill="#DA9367"/>
<path d="M51.31 25.36L51.3 25.47C51.2775 25.67 51.1953 25.8585 51.0639 26.011C50.9326 26.1635 50.7583 26.2728 50.5639 26.3247C50.3695 26.3765 50.1639 26.3685 49.9741 26.3016C49.7843 26.2348 49.619 26.1122 49.5 25.95L48.52 24.59C48.4396 24.4776 48.3833 24.3497 48.3548 24.2145C48.3263 24.0792 48.3261 23.9396 48.3543 23.8042C48.3825 23.6689 48.4385 23.5409 48.5186 23.4283C48.5987 23.3157 48.7014 23.221 48.82 23.15L49.35 22.83C49.326 22.9616 49.3288 23.0967 49.358 23.2272C49.3872 23.3578 49.4423 23.4811 49.52 23.59L50.5 24.95C50.5899 25.0807 50.7111 25.1868 50.8527 25.2584C50.9942 25.33 51.1514 25.365 51.31 25.36V25.36Z" fill="#DA9367"/>
<path d="M29.9 11.93L29.89 12.03C29.8698 12.2325 29.7882 12.4241 29.6562 12.579C29.5242 12.7339 29.348 12.8449 29.1513 12.8971C28.9546 12.9493 28.7466 12.9401 28.5552 12.871C28.3637 12.8018 28.198 12.6759 28.08 12.51L27.11 11.15C27.0296 11.0376 26.9734 10.9097 26.9448 10.7745C26.9163 10.6392 26.9162 10.4995 26.9444 10.3642C26.9725 10.2289 27.0285 10.1009 27.1086 9.98832C27.1888 9.87572 27.2914 9.78095 27.41 9.71L27.94 9.39C27.9161 9.52161 27.9188 9.65668 27.948 9.78723C27.9772 9.91777 28.0323 10.0411 28.11 10.15L29.08 11.51C29.173 11.6406 29.2961 11.747 29.4388 11.8201C29.5815 11.8932 29.7397 11.9309 29.9 11.93Z" fill="#DA9367"/>
<path d="M36 32C21.641 32 11 27 9.99999 20.261C9.73724 18.4679 9.81015 16.6415 10.215 14.875C7.44625 18.4063 5.95996 22.7738 5.99999 27.261C5.99999 33.744 17.641 39 32 39C46.359 39 58 33.744 58 27.261C58 27.015 57.983 26.775 57.975 26.532C53.367 29.817 45.25 32 36 32Z" fill="#F9DBAF"/>
<path d="M37.638 5.175C35.356 3.72641 32.7028 2.97088 30 3C23.373 3 18 7.253 18 12.5C18.0076 13.8646 18.3716 15.2035 19.056 16.384C19.0202 16.0907 19.0015 15.7955 19 15.5C19 10.253 24.373 6 31 6C32.1713 5.99832 33.3386 6.1346 34.478 6.406C35.0674 6.54254 35.6843 6.4981 36.2481 6.27848C36.8119 6.05886 37.2963 5.67428 37.638 5.175V5.175Z" fill="#F9DBAF"/>
<path d="M39.5 19C44.194 19 48 15.866 48 12C47.9945 10.8148 47.6397 9.65762 46.98 8.673C46.986 8.782 47 8.89 47 9C47 11.9 46.547 13.825 44.34 14.606C42.3733 15.2482 40.7339 16.6309 39.769 18.461L39.5 19Z" fill="#F9DBAF"/>
<path d="M18.684 9.36301C15.7757 10.0686 13.1416 11.6199 11.114 13.821L13.229 12.899C15.0436 12.1088 17.0311 11.7992 19 12V12L18.684 9.36301Z" fill="#F9DBAF"/>
<path d="M41.181 39.261C41.4426 39.2172 41.6762 39.0713 41.8302 38.8554C41.9843 38.6394 42.0463 38.3711 42.0025 38.1095C41.9587 37.8479 41.8128 37.6143 41.5969 37.4603C41.3809 37.3062 41.1126 37.2442 40.851 37.288C37.9253 37.7684 34.9649 38.0065 32 38C18.448 38 7 33.082 7 27.261C7 19.773 11.182 13.202 17.161 10.891C17.0568 11.4211 17.0029 11.9598 17 12.5C17.0112 14.2748 17.5501 16.0063 18.548 17.474C18.6976 17.6894 18.9258 17.8373 19.1834 17.8861C19.441 17.9349 19.7075 17.8805 19.9254 17.7347C20.1433 17.5889 20.2953 17.3633 20.3485 17.1066C20.4017 16.8498 20.352 16.5824 20.21 16.362C19.4275 15.2256 19.0058 13.8797 19 12.5C19.0026 11.565 19.2008 10.6408 19.582 9.78701C19.582 9.77901 19.594 9.77501 19.598 9.76701C20.3174 8.22996 21.4627 6.9316 22.898 6.02601C23.01 5.95485 23.1068 5.86211 23.1826 5.75318C23.2584 5.64425 23.3118 5.52132 23.3396 5.39155C23.3674 5.26179 23.3692 5.12778 23.3447 4.99734C23.3202 4.8669 23.27 4.74264 23.197 4.63181C23.124 4.52098 23.0296 4.42578 22.9195 4.35178C22.8093 4.27777 22.6855 4.22644 22.5553 4.20077C22.4251 4.1751 22.291 4.1756 22.161 4.20226C22.031 4.22891 21.9076 4.28117 21.798 4.35601C20.1875 5.38552 18.8721 6.81595 17.981 8.50701C10.432 10.525 5 18.325 5 27.261C5 34.4 16.859 40 32 40C35.0754 40.006 38.1461 39.7588 41.181 39.261V39.261Z" fill="#464A51"/>
<path d="M46.856 10.83C46.9517 11.2126 47.0001 11.6056 47 12C46.9832 12.767 46.8025 13.5215 46.4702 14.213C46.1378 14.9044 45.6614 15.5168 45.073 16.009C44.9654 16.0932 44.8761 16.1986 44.8108 16.3186C44.7455 16.4386 44.7055 16.5708 44.6933 16.7069C44.681 16.843 44.6968 16.9802 44.7396 17.1099C44.7824 17.2397 44.8514 17.3593 44.9422 17.4614C45.0331 17.5634 45.1439 17.6458 45.2678 17.7034C45.3917 17.761 45.5262 17.7926 45.6628 17.7962C45.7993 17.7998 45.9352 17.7754 46.062 17.7244C46.1888 17.6735 46.3038 17.5971 46.4 17.5C47.2012 16.8223 47.8479 15.9807 48.2964 15.032C48.7449 14.0832 48.9848 13.0493 49 12V11.974C53.848 14.916 57 20.809 57 27.261C57 29.583 55.152 31.835 51.908 33.678C51.8763 33.6923 51.8456 33.7087 51.816 33.727C49.5628 34.9424 47.1642 35.8665 44.678 36.477C44.4434 36.5388 44.2393 36.6837 44.1037 36.8848C43.968 37.0859 43.9101 37.3295 43.9407 37.5701C43.9713 37.8107 44.0883 38.032 44.2699 38.1928C44.4515 38.3536 44.6854 38.4429 44.928 38.444C45.013 38.4446 45.0978 38.4339 45.18 38.412C47.1863 37.9051 49.144 37.2217 51.03 36.37L48.1 51.734C47.272 52.206 46.425 52.623 45.569 53.016L47.269 42.792C47.2949 42.6607 47.2942 42.5255 47.2669 42.3944C47.2396 42.2634 47.1863 42.1392 47.1101 42.0291C47.0339 41.919 46.9364 41.8254 46.8234 41.7537C46.7103 41.682 46.584 41.6338 46.452 41.6118C46.3199 41.5899 46.1848 41.5946 46.0547 41.6259C45.9245 41.6571 45.8019 41.7141 45.6942 41.7936C45.5865 41.8731 45.4958 41.9733 45.4276 42.0885C45.3594 42.2037 45.3149 42.3314 45.297 42.464L43.4 53.921C42.6666 54.195 41.927 54.4417 41.181 54.661L42.272 43.761C42.2851 43.6303 42.2724 43.4982 42.2345 43.3724C42.1966 43.2466 42.1343 43.1295 42.0511 43.0278C41.968 42.9261 41.8656 42.8417 41.7498 42.7795C41.6341 42.7174 41.5072 42.6786 41.3765 42.6655C41.2457 42.6524 41.1137 42.6651 40.9879 42.703C40.8621 42.7409 40.745 42.8032 40.6433 42.8864C40.5415 42.9695 40.4572 43.0719 40.395 43.1876C40.3329 43.3034 40.2941 43.4303 40.281 43.561L39.112 55.2C38.43 55.352 37.745 55.4823 37.057 55.591L37.41 44.249C37.4183 43.9839 37.321 43.7264 37.1395 43.533C36.958 43.3397 36.7071 43.2264 36.442 43.218C36.1776 43.2125 35.9217 43.311 35.7291 43.4922C35.5365 43.6733 35.4226 43.9228 35.412 44.187L35.048 55.843C33.0191 56.0336 30.9768 56.0336 28.948 55.843L28.56 44.183C28.5512 43.9178 28.4375 43.6669 28.2437 43.4856C28.05 43.3042 27.7922 43.2072 27.527 43.216C27.2618 43.2248 27.0109 43.3385 26.8295 43.5322C26.6482 43.726 26.5512 43.9838 26.56 44.249L26.939 55.591C26.251 55.483 25.5666 55.353 24.886 55.201L23.724 43.561C23.6975 43.297 23.5671 43.0543 23.3617 42.8864C23.1562 42.7184 22.8925 42.639 22.6285 42.6655C22.3645 42.692 22.1218 42.8223 21.9538 43.0278C21.7859 43.2332 21.7065 43.497 21.733 43.761L22.824 54.661C22.0773 54.441 21.3376 54.1943 20.605 53.921L18.7 42.464C18.6496 42.2089 18.5019 41.9835 18.2881 41.8355C18.0743 41.6875 17.8113 41.6286 17.5548 41.6713C17.2984 41.7139 17.0686 41.8548 16.9142 42.064C16.7599 42.2732 16.6931 42.5344 16.728 42.792L18.428 53.016C17.572 52.623 16.728 52.206 15.897 51.734L13.452 38.9C13.4022 38.6394 13.251 38.4093 13.0316 38.2602C12.8122 38.1111 12.5425 38.0553 12.282 38.105C12.0214 38.1547 11.7912 38.3059 11.6422 38.5253C11.4931 38.7448 11.4372 39.0144 11.487 39.275L13.737 51.088C13.2707 51.6168 13.0093 52.2951 13 53C13 57.076 21.476 62 32 62C33.0715 62.0031 34.1425 61.9476 35.208 61.834C35.3399 61.8214 35.4679 61.7828 35.5848 61.7203C35.7016 61.6579 35.8049 61.5728 35.8885 61.4701C35.9722 61.3674 36.0347 61.249 36.0722 61.122C36.1098 60.9949 36.1217 60.8617 36.1073 60.73C36.093 60.5983 36.0526 60.4707 35.9885 60.3548C35.9244 60.2388 35.8379 60.1368 35.734 60.0545C35.6302 59.9723 35.511 59.9115 35.3834 59.8757C35.2559 59.8399 35.1225 59.8298 34.991 59.846C33.9975 59.9516 32.999 60.003 32 60C22.922 60 16.114 56.07 15.134 53.582C16.4955 54.3433 17.9071 55.0115 19.359 55.582L19.375 55.588C27.486 58.796 36.514 58.796 44.625 55.588L44.641 55.582C46.0907 55.0117 47.4999 54.3435 48.859 53.582C48.151 55.263 44.651 57.882 38.834 59.232C38.594 59.2867 38.3827 59.4279 38.2403 59.6287C38.098 59.8295 38.0347 60.0757 38.0626 60.3202C38.0904 60.5647 38.2075 60.7904 38.3913 60.954C38.5752 61.1176 38.8129 61.2077 39.059 61.207C39.135 61.207 39.2108 61.1986 39.285 61.182C46.073 59.611 51 56.169 51 53C50.9911 52.2941 50.7296 51.6147 50.263 51.085L53.292 35.185C56.957 32.991 59 30.239 59 27.261C59 19.461 54.794 12.352 48.488 9.425C47.021 5.781 42.578 3.414 37.851 4.125C36.0343 3.07432 34.0261 2.39698 31.9442 2.1327C29.8623 1.86843 27.7485 2.02254 25.727 2.586C25.6005 2.62152 25.4823 2.68161 25.379 2.76282C25.2758 2.84403 25.1896 2.94479 25.1253 3.05933C25.061 3.17387 25.0198 3.29995 25.0043 3.43039C24.9887 3.56082 24.999 3.69304 25.0345 3.8195C25.07 3.94596 25.1301 4.06419 25.2113 4.16743C25.2925 4.27068 25.3933 4.35691 25.5078 4.42122C25.6223 4.48552 25.7484 4.52664 25.8789 4.54221C26.0093 4.55779 26.1415 4.54752 26.268 4.512C28.0781 4.00374 29.9737 3.87462 31.836 4.13273C33.6983 4.39084 35.4873 5.03061 37.091 6.012C37.3059 6.15229 37.5666 6.20456 37.819 6.158C41.907 5.407 45.737 7.417 46.745 10.48L46.856 10.83Z" fill="#464A51"/>
<path d="M23.585 19.321C23.1078 19.5578 22.7064 19.9234 22.4262 20.3766C22.1461 20.8297 21.9985 21.3523 22 21.885V23.274C21.9995 23.9132 22.2128 24.5343 22.6061 25.0382C22.9993 25.5422 23.5498 25.9001 24.17 26.055L24.947 26.249C25.1758 26.3068 25.411 26.3357 25.647 26.335C26.2859 26.3342 26.9063 26.1202 27.4099 25.727C27.9135 25.3337 28.2714 24.7837 28.427 24.164L28.655 23.25C28.798 22.6767 28.7605 22.0732 28.5477 21.5219C28.3349 20.9707 27.9572 20.4985 27.466 20.17L26.46 19.5C26.0388 19.22 25.5513 19.056 25.0465 19.0246C24.5418 18.9932 24.0377 19.0954 23.585 19.321ZM26.352 21.834C26.5003 21.9337 26.6143 22.0766 26.6786 22.2434C26.7428 22.4101 26.7541 22.5926 26.711 22.766L26.482 23.679C26.4255 23.9012 26.2837 24.0921 26.0873 24.2102C25.8908 24.3284 25.6557 24.3642 25.433 24.31L24.656 24.11C24.4692 24.0635 24.3033 23.956 24.1845 23.8046C24.0657 23.6532 24.0008 23.4665 24 23.274V21.885C23.9998 21.724 24.0446 21.5662 24.1292 21.4293C24.2138 21.2924 24.335 21.1818 24.479 21.11C24.6159 21.0428 24.768 21.0124 24.9202 21.0218C25.0724 21.0313 25.2195 21.0803 25.347 21.164L26.352 21.834Z" fill="#464A51"/>
<path d="M41.236 14.377L42.536 13.508C42.7817 13.3434 42.9878 13.1265 43.1395 12.8727C43.2912 12.6189 43.3848 12.3347 43.4135 12.0404C43.4422 11.7461 43.4053 11.4492 43.3054 11.1709C43.2056 10.8926 43.0453 10.6399 42.836 10.431L41.287 8.87299C40.9595 8.54721 40.5297 8.34442 40.07 8.29887C39.6104 8.25332 39.149 8.36781 38.764 8.62299L37.464 9.49199C37.2184 9.65654 37.0123 9.87351 36.8605 10.1273C36.7088 10.381 36.6152 10.6653 36.5865 10.9596C36.5578 11.2538 36.5947 11.5508 36.6946 11.8291C36.7945 12.1074 36.9548 12.3601 37.164 12.569L38.722 14.127C39.0489 14.4538 39.4789 14.6573 39.9388 14.7029C40.3988 14.7484 40.8604 14.6333 41.245 14.377H41.236ZM38.569 11.155L39.869 10.287L41.427 11.845L40.127 12.713L38.569 11.155Z" fill="#464A51"/>
<path d="M35.319 25.694L35.698 27.588C35.8353 28.2675 36.2032 28.8787 36.7392 29.3182C37.2753 29.7577 37.9468 29.9985 38.64 30H40.4C40.9919 30.0016 41.571 29.8276 42.064 29.5L42.744 29.046C43.09 28.8154 43.3843 28.5153 43.6082 28.1649C43.8321 27.8144 43.9807 27.4212 44.0445 27.0103C44.1084 26.5994 44.0861 26.1797 43.9791 25.7778C43.8721 25.376 43.6827 25.0008 43.423 24.676L41.796 22.642C41.3653 22.1085 40.7658 21.7375 40.0962 21.5903C39.4265 21.4431 38.7267 21.5283 38.112 21.832V21.832L36.925 22.426C36.3369 22.7203 35.8614 23.1992 35.5713 23.7894C35.2813 24.3796 35.1926 25.0486 35.319 25.694V25.694ZM37.813 24.211L39 23.617C39.2049 23.5146 39.4388 23.4856 39.6625 23.5349C39.8862 23.5843 40.0862 23.7089 40.229 23.888L41.856 25.921C41.9426 26.0292 42.0058 26.1543 42.0415 26.2883C42.0773 26.4223 42.0847 26.5622 42.0635 26.6992C42.0422 26.8362 41.9927 26.9673 41.9181 27.0842C41.8435 27.201 41.7454 27.3011 41.63 27.378L40.949 27.832C40.7865 27.9408 40.5955 27.9992 40.4 28H38.64C38.4093 28.0003 38.1856 27.9208 38.0068 27.775C37.828 27.6292 37.7051 27.426 37.659 27.2L37.28 25.3C37.2373 25.0852 37.2663 24.8623 37.3626 24.6655C37.4589 24.4688 37.6171 24.3091 37.813 24.211Z" fill="#464A51"/>
<path d="M12.511 23.187C12.6093 23.4453 12.7602 23.6804 12.954 23.8775C13.1478 24.0745 13.3804 24.2293 13.637 24.332L15.187 24.952C15.4251 25.0477 15.6793 25.0969 15.936 25.097C16.2772 25.0965 16.6125 25.0087 16.9102 24.842C17.2079 24.6752 17.458 24.4351 17.6367 24.1445C17.8154 23.8539 17.9167 23.5223 17.9311 23.1815C17.9455 22.8406 17.8725 22.5017 17.719 22.197L16.789 20.34C16.6229 20.0077 16.3676 19.7282 16.0516 19.5329C15.7356 19.3376 15.3714 19.2341 15 19.2341C14.6285 19.2341 14.2644 19.3376 13.9484 19.5329C13.6324 19.7282 13.377 20.0077 13.211 20.34L12.592 21.578C12.4681 21.8261 12.397 22.0971 12.383 22.374C12.3691 22.6509 12.4127 22.9277 12.511 23.187V23.187ZM15 21.236L15.93 23.095L14.381 22.476L15 21.236Z" fill="#464A51"/>
<path d="M49.5 21.582L48.313 22.293C48.0754 22.4349 47.8699 22.6245 47.7095 22.8499C47.549 23.0753 47.437 23.3315 47.3806 23.6023C47.3242 23.8732 47.3246 24.1528 47.3818 24.4235C47.4391 24.6942 47.5518 24.9501 47.713 25.175L48.685 26.53C48.8681 26.7884 49.1105 26.9992 49.3918 27.1446C49.6732 27.2901 49.9853 27.366 50.302 27.366C50.4778 27.366 50.653 27.3431 50.823 27.298C51.2162 27.196 51.5687 26.9758 51.8328 26.6672C52.0969 26.3585 52.26 25.9763 52.3 25.572L52.516 23.507C52.555 23.1375 52.4902 22.7644 52.3291 22.4296C52.1679 22.0948 51.9166 21.8115 51.6034 21.6115C51.2903 21.4115 50.9276 21.3028 50.556 21.2974C50.1845 21.292 49.8188 21.3902 49.5 21.581V21.582ZM50.525 23.3L50.309 25.365L49.337 24.01L50.524 23.299L50.525 23.3Z" fill="#464A51"/>
<path d="M30.185 8.173C29.8726 7.97279 29.5104 7.86389 29.1393 7.85859C28.7682 7.85329 28.4031 7.9518 28.085 8.143L26.897 8.854C26.6595 8.99589 26.454 9.18551 26.2935 9.41089C26.133 9.63626 26.021 9.89248 25.9647 10.1633C25.9083 10.4342 25.9087 10.7138 25.9659 10.9845C26.0231 11.2552 26.1359 11.5111 26.297 11.736L27.27 13.091C27.4527 13.3497 27.6948 13.5607 27.976 13.7064C28.2573 13.852 28.5693 13.928 28.886 13.928C29.0613 13.9276 29.2357 13.9044 29.405 13.859C29.7983 13.7576 30.1509 13.5378 30.4152 13.2295C30.6796 12.9212 30.8428 12.5391 30.883 12.135L31.101 10.066C31.14 9.69645 31.0749 9.32335 30.913 8.98885C30.7512 8.65435 30.499 8.37176 30.185 8.173V8.173ZM28.894 11.926L27.921 10.57L29.109 9.859L28.6 9L29.114 9.857L28.894 11.926Z" fill="#464A51"/>
<path d="M23 12C23.5523 12 24 11.5523 24 11C24 10.4477 23.5523 10 23 10C22.4477 10 22 10.4477 22 11C22 11.5523 22.4477 12 23 12Z" fill="#464A51"/>
<path d="M31.707 17.389C32.2593 17.389 32.707 16.9413 32.707 16.389C32.707 15.8367 32.2593 15.389 31.707 15.389C31.1547 15.389 30.707 15.8367 30.707 16.389C30.707 16.9413 31.1547 17.389 31.707 17.389Z" fill="#464A51"/>
<path d="M45 22C45.5523 22 46 21.5523 46 21C46 20.4477 45.5523 20 45 20C44.4477 20 44 20.4477 44 21C44 21.5523 44.4477 22 45 22Z" fill="#464A51"/>
<path d="M47 33C47.5523 33 48 32.5523 48 32C48 31.4477 47.5523 31 47 31C46.4477 31 46 31.4477 46 32C46 32.5523 46.4477 33 47 33Z" fill="#464A51"/>
<path d="M39 19C39.5523 19 40 18.5523 40 18C40 17.4477 39.5523 17 39 17C38.4477 17 38 17.4477 38 18C38 18.5523 38.4477 19 39 19Z" fill="#464A51"/>
<path d="M27 33C27.5523 33 28 32.5523 28 32C28 31.4477 27.5523 31 27 31C26.4477 31 26 31.4477 26 32C26 32.5523 26.4477 33 27 33Z" fill="#464A51"/>
<path d="M32 26C32.5523 26 33 25.5523 33 25C33 24.4477 32.5523 24 32 24C31.4477 24 31 24.4477 31 25C31 25.5523 31.4477 26 32 26Z" fill="#464A51"/>
<path d="M35 9C35.5523 9 36 8.55228 36 8C36 7.44772 35.5523 7 35 7C34.4477 7 34 7.44772 34 8C34 8.55228 34.4477 9 35 9Z" fill="#464A51"/>
<path d="M51 19C51.5523 19 52 18.5523 52 18C52 17.4477 51.5523 17 51 17C50.4477 17 50 17.4477 50 18C50 18.5523 50.4477 19 51 19Z" fill="#464A51"/>
<path d="M11 28C11.5523 28 12 27.5523 12 27C12 26.4477 11.5523 26 11 26C10.4477 26 10 26.4477 10 27C10 27.5523 10.4477 28 11 28Z" fill="#464A51"/>
<path d="M18 30C18.5523 30 19 29.5523 19 29C19 28.4477 18.5523 28 18 28C17.4477 28 17 28.4477 17 29C17 29.5523 17.4477 30 18 30Z" fill="#464A51"/>
<path d="M14 17C14.5523 17 15 16.5523 15 16C15 15.4477 14.5523 15 14 15C13.4477 15 13 15.4477 13 16C13 16.5523 13.4477 17 14 17Z" fill="#464A51"/>
<path d="M31 44.371V53C31 53.2652 31.1054 53.5196 31.2929 53.7071C31.4804 53.8946 31.7348 54 32 54C32.2652 54 32.5196 53.8946 32.7071 53.7071C32.8946 53.5196 33 53.2652 33 53V44.371C33 44.1058 32.8946 43.8514 32.7071 43.6639C32.5196 43.4764 32.2652 43.371 32 43.371C31.7348 43.371 31.4804 43.4764 31.2929 43.6639C31.1054 43.8514 31 44.1058 31 44.371Z" fill="#464A51"/>
</svg>
